# xmcd
#
# Track frame offsets:
#	150
#	15335
#	32642
#	49038
#	67352
#	79158
#	94780
#	107806
#	119220
#	135835
#	153011
#	166366
#	186494
#	202843
#	218291
#	233125
#	239502
#	251313
#	268091
#	285284
#	303030
#	332887
#
# Disc length: 4671 seconds
#
# Revision: 2
# Processed by: cddbd v1.5.1PL0 Copyright (c) Steve Scherf et al.
# Submitted via: EZCDDA 4.3.2
#
DISCID=27123d16
DTITLE=Bryan Adams - Room Service
DYEAR=1900
DGENRE=
TTITLE0=East Side Story
TTITLE1=This Side Of Paradise
TTITLE2=Not Romeo Not Juliet
TTITLE3=Flying
TTITLE4=She's A Little Too Good For Me
TTITLE5=Open Road
TTITLE6=Room Service
TTITLE7=I Was Only Dreamin
TTITLE8=Right Back Where I Started From
TTITLE9=Nowhere Fast
TTITLE10=Why Do You Have To Be
TTITLE11=Back To You
TTITLE12=18 Till I Die
TTITLE13=A Little Love
TTITLE14=Can't Stop This Thing We Started
TTITLE15=Wanna Be Your Underwear
TTITLE16=I Think About You
TTITLE17=I Finally Found Someone
TTITLE18=Run To You
TTITLE19=Brother Under The Sun
TTITLE20=I Do It For You
TTITLE21=Dont Give Up'2004
EXTD=
EXTT0=
EXTT1=
EXTT2=
EXTT3=
EXTT4=
EXTT5=
EXTT6=
EXTT7=
EXTT8=
EXTT9=
EXTT10=
EXTT11=
EXTT12=
EXTT13=
EXTT14=
EXTT15=
EXTT16=
EXTT17=
EXTT18=
EXTT19=
EXTT20=
EXTT21=
PLAYORDER=
